<?xml version="1.0" encoding="UTF-8"?>
<svg id="Layer_1" data-name="Layer 1" xmlns="http://www.w3.org/2000/svg" xmlns:xlink="http://www.w3.org/1999/xlink" viewBox="0 0 1080 1080">
  <defs>
    <style>
      .cls-1 {
        fill: #3453b3;
        filter: url(#drop-shadow-2);
      }

      .cls-1, .cls-2, .cls-3, .cls-4, .cls-5, .cls-6 {
        stroke-width: 0px;
      }

      .cls-2 {
        fill: url(#linear-gradient);
        filter: url(#drop-shadow-1);
      }

      .cls-3 {
        fill: url(#linear-gradient-4);
        filter: url(#drop-shadow-5);
      }

      .cls-4 {
        fill: none;
      }

      .cls-5 {
        fill: url(#linear-gradient-3);
        filter: url(#drop-shadow-4);
      }

      .cls-6 {
        fill: url(#linear-gradient-2);
        filter: url(#drop-shadow-3);
      }
    </style>
    <linearGradient id="linear-gradient" x1="441.85" y1="391.96" x2="232.46" y2="391.96" gradientUnits="userSpaceOnUse">
      <stop offset="0" stop-color="#805100"/>
      <stop offset=".1" stop-color="#cc8300"/>
      <stop offset=".2" stop-color="#e69500"/>
      <stop offset=".3" stop-color="orange"/>
      <stop offset="1" stop-color="orange"/>
    </linearGradient>
    <filter id="drop-shadow-1" filterUnits="userSpaceOnUse">
      <feOffset dx="0" dy="20"/>
      <feGaussianBlur result="blur" stdDeviation="10"/>
      <feFlood flood-color="#995e00" flood-opacity=".75"/>
      <feComposite in2="blur" operator="in"/>
      <feComposite in="SourceGraphic"/>
    </filter>
    <filter id="drop-shadow-2" filterUnits="userSpaceOnUse">
      <feOffset dx="0" dy="20"/>
      <feGaussianBlur result="blur-2" stdDeviation="10"/>
      <feFlood flood-color="#26407f" flood-opacity=".75"/>
      <feComposite in2="blur-2" operator="in"/>
      <feComposite in="SourceGraphic"/>
    </filter>
    <linearGradient id="linear-gradient-2" x1="638.15" x2="847.54" xlink:href="#linear-gradient"/>
    <filter id="drop-shadow-3" filterUnits="userSpaceOnUse">
      <feOffset dx="0" dy="20"/>
      <feGaussianBlur result="blur-3" stdDeviation="10"/>
      <feFlood flood-color="#995e00" flood-opacity=".75"/>
      <feComposite in2="blur-3" operator="in"/>
      <feComposite in="SourceGraphic"/>
    </filter>
    <linearGradient id="linear-gradient-3" x1="603.89" y1="571.08" x2="313.94" y2="861.02" gradientUnits="userSpaceOnUse">
      <stop offset="0" stop-color="#ffc04d"/>
      <stop offset=".1" stop-color="#ffe4b3"/>
      <stop offset=".2" stop-color="orange"/>
      <stop offset="1" stop-color="orange"/>
    </linearGradient>
    <filter id="drop-shadow-4" filterUnits="userSpaceOnUse">
      <feOffset dx="0" dy="20"/>
      <feGaussianBlur result="blur-4" stdDeviation="10"/>
      <feFlood flood-color="#7f4e00" flood-opacity=".75"/>
      <feComposite in2="blur-4" operator="in"/>
      <feComposite in="SourceGraphic"/>
    </filter>
    <linearGradient id="linear-gradient-4" x1="476.02" y1="573.23" x2="766.2" y2="863.41" xlink:href="#linear-gradient-3"/>
    <filter id="drop-shadow-5" filterUnits="userSpaceOnUse">
      <feOffset dx="0" dy="20"/>
      <feGaussianBlur result="blur-5" stdDeviation="10"/>
      <feFlood flood-color="#7f4e00" flood-opacity=".75"/>
      <feComposite in2="blur-5" operator="in"/>
      <feComposite in="SourceGraphic"/>
    </filter>
  </defs>
  <path class="cls-2" d="M441.85,474.62v48.61l-209.39-209.39c11.42-18.93,24.53-36.72,39.13-53.16l139.38,139.38c1.97,1.97,3.86,4.02,5.66,6.13,16.23,19.01,25.23,43.26,25.23,68.43Z"/>
  <path class="cls-1" d="M1062.05,498.7c0,232.31-151.75,429.18-361.52,496.9v-69.09c5.78-2.17,11.54-4.46,17.25-6.88,54.38-23.01,103.25-55.95,145.22-97.92,41.97-41.97,74.91-90.84,97.92-145.22,23.79-56.28,35.86-116.09,35.86-177.78s-12.07-121.51-35.86-177.78c-11.63-27.49-25.8-53.58-42.4-78.06-12.24-18.09-25.82-35.32-40.68-51.6-4.8-5.29-9.75-10.47-14.84-15.56-10.52-10.52-21.47-20.46-32.82-29.82l-290.18,290.18L249.82,145.87c-11.35,9.36-22.3,19.3-32.82,29.82-5.09,5.09-10.04,10.27-14.84,15.56-14.87,16.29-28.44,33.52-40.68,51.6-16.6,24.48-30.77,50.57-42.4,78.06-23.79,56.28-35.86,116.09-35.86,177.78s12.07,121.51,35.86,177.78c23.01,54.38,55.95,103.25,97.92,145.22,41.97,41.97,90.84,74.91,145.22,97.92,5.72,2.41,11.47,4.71,17.25,6.88v69.09C169.7,927.87,17.95,731.01,17.95,498.7c0-112.84,35.8-217.32,96.67-302.7,12.71-17.84,26.53-34.85,41.36-50.93,14.85-16.14,30.74-31.35,47.52-45.52,16.8-14.16,34.49-27.3,53-39.28l283.5,283.5L823.5,60.27c18.51,11.98,36.2,25.12,53,39.28,16.78,14.17,32.67,29.38,47.52,45.52,14.83,16.08,28.65,33.08,41.36,50.93,60.87,85.38,96.67,189.86,96.67,302.7Z"/>
  <path class="cls-6" d="M847.54,313.84l-209.39,209.39v-48.61c0-24.1,8.26-47.36,23.2-65.98,2.39-2.99,4.96-5.86,7.68-8.58l139.38-139.38c14.61,16.43,27.71,34.23,39.13,53.16Z"/>
  <path class="cls-5" d="M507.37,539.61v480.13c-22.16-1.37-43.95-4.1-65.26-8.16v-488.07l-.26-.26v-48.61c0-25.17-9-49.42-25.23-68.43l25.23,25.23,40.55,40.55c16.06,18.78,24.96,42.75,24.96,67.64Z"/>
  <line class="cls-4" x1="485.71" y1="475.27" x2="482.41" y2="471.97"/>
  <line class="cls-4" x1="416.63" y1="406.19" x2="365.64" y2="355.2"/>
  <path class="cls-3" d="M661.34,408.64c-14.94,18.62-23.2,41.88-23.2,65.98v48.61l-.26.26v488.07c-21.31,4.06-43.1,6.8-65.26,8.16v-480.13c0-27.63,10.97-54.12,30.51-73.65l35.01-33.89,23.2-23.42Z"/>
  <line class="cls-4" x1="707.06" y1="362.51" x2="661.35" y2="408.64"/>
</svg>